<?xml version="1.0" encoding="utf-8"?>
<svg width="800px" height="800px" viewBox="0 0 16 16" xmlns="http://www.w3.org/2000/svg" fill="#000000">
  <path fill-rule="evenodd" clip-rule="evenodd" d="M 3.04 10 L 5.62 10 L 4.701 11.014 L 2.54 11 L 2.04 10.5 L 2.04 1.5 L 2.54 1 L 14.54 1 L 15.04 1.5 L 15.006 6.843 L 13.885 6.93 L 14.04 2 L 3.04 2 L 3.04 10 Z M 8.984 10.445 L 6.59 15.972 L 14.743 7.562 L 11.414 7.814 L 12.916 1.883 L 5.686 10.644 L 8.984 10.445 Z M 6.95 7 L 4.04 7 L 4.04 6 L 7.4 6 L 6.95 7 Z M 6.05 9 L 4.04 9 L 4.04 8 L 6.5 8 L 6.05 9 Z" style="opacity: 0.9;"/>
</svg>