<?xml version="1.0" encoding="utf-8"?>
<svg height="800px" width="800px" version="1.1" id="_x32_" xmlns="http://www.w3.org/2000/svg" viewBox="0 0 418.255 512">
  <style type="text/css">
	.st0{fill:#000000;}
</style>
  <g style="" transform="matrix(1, 0, 0, 1, -46.871975, 0)">
    <path class="st0" d="M 459.991 82.262 C 454.173 68.874 444.125 57.346 431.381 47.408 C 412.202 32.512 386.623 20.886 356.707 12.717 C 326.789 4.575 292.498 0 256 0 C 200.378 0.036 149.929 10.548 112.152 28.374 C 93.263 37.333 77.46 48.134 65.842 61.087 C 60.051 67.567 55.322 74.629 52.01 82.263 C 48.706 89.897 46.864 98.129 46.872 106.553 L 46.872 405.44 C 46.864 413.863 48.706 422.105 52.01 429.73 C 57.828 443.118 67.876 454.645 80.62 464.593 C 99.8 479.489 125.377 491.116 155.295 499.285 C 185.211 507.425 219.503 511.992 256 512 C 311.632 511.954 362.07 501.454 399.848 483.617 C 418.736 474.659 434.539 463.866 446.157 450.905 C 451.949 444.433 456.677 437.371 459.99 429.729 C 463.294 422.105 465.136 413.862 465.127 405.439 L 465.127 106.552 C 465.137 98.128 463.295 89.896 459.991 82.262 Z M 434.282 395.44 C 434.273 399.733 433.393 403.918 431.514 408.283 C 428.246 415.88 423.665 424.049 413.653 431.828 C 398.686 443.528 376.284 454.085 349.127 461.454 C 321.969 468.842 290.073 473.163 255.999 473.154 C 204.09 473.2 157.181 463.07 124.496 447.548 C 108.139 439.833 95.432 430.774 87.354 421.688 C 83.288 417.15 80.365 412.63 78.486 408.282 C 76.606 403.916 75.726 399.732 75.717 395.439 L 75.717 366.079 C 92.401 381.329 115.828 393.509 143.847 402.514 C 176.151 412.834 214.636 418.761 255.999 418.77 C 311.159 418.743 361.163 408.277 398.305 390.741 C 413.236 383.661 425.046 380.658 434.281 365.943 L 434.281 405.44 L 434.282 395.44 Z M 434.282 321.198 C 423.49 336.93 391.425 352.416 361.572 361.91 C 331.728 371.458 295.285 377.14 256 377.132 C 203.628 377.159 156.274 366.992 122.954 351.182 C 106.28 343.312 93.191 334.045 84.66 324.468 C 80.702 320.012 77.77 315.6 75.718 311.208 L 75.718 266.454 C 92.402 281.703 115.829 293.884 143.848 302.888 C 176.152 313.199 214.637 319.126 256 319.136 C 311.16 319.108 361.164 308.644 398.306 291.106 C 413.237 284.026 423.999 275.749 434.282 266.318 L 434.282 321.198 Z M 434.282 211.572 C 434.282 211.572 429.299 220.385 425.342 224.833 C 412.562 239.228 391.425 252.789 361.572 262.274 C 331.728 271.823 295.285 277.505 256 277.496 C 203.628 277.524 156.274 267.358 122.954 251.555 C 106.28 243.685 93.191 234.409 84.66 224.833 C 80.702 220.385 77.77 215.974 75.718 211.572 L 75.718 166.818 C 92.402 182.076 115.829 194.248 143.848 203.261 C 176.152 213.581 214.637 219.508 256 219.508 C 311.16 219.481 361.164 209.024 398.306 191.479 C 413.237 184.399 423.999 176.121 434.282 166.69 L 434.282 211.572 Z M 436.282 111.936 C 434.231 116.339 431.299 120.759 427.342 125.207 C 414.562 139.612 391.425 153.163 361.572 162.658 C 331.728 172.206 295.285 177.888 256 177.88 C 203.628 177.907 156.274 167.74 122.954 151.93 C 106.28 144.051 93.191 134.783 84.66 125.208 C 80.702 120.76 77.77 116.34 75.718 111.946 L 75.718 116.552 C 75.728 112.258 76.608 108.083 78.487 103.717 C 81.755 96.11 88.335 87.951 98.347 80.163 C 113.315 68.463 135.716 57.907 162.873 50.546 C 190.031 43.148 221.926 38.837 256 38.846 C 307.91 38.8 354.819 48.931 387.504 64.452 C 403.86 72.158 416.558 81.217 424.646 90.312 C 428.712 94.85 436.272 102.259 436.282 106.553 L 436.282 111.936 Z"/>
  </g>
</svg>