<?xml version="1.0" encoding="utf-8"?>
<svg xmlns="http://www.w3.org/2000/svg" viewBox="0 0 421.028 510.31">
  <g transform="matrix(0.274107, 0, 0, 0.284771, -56.74015, -22.49691)" style="">
    <path d="M 975 817 C 1133 817 1280.667 802.667 1418 774 C 1555.333 745.333 1651.43 707.596 1743 627 L 1743 847 C 1743 893 1708.667 935.667 1640 975 C 1571.333 1014.333 1478 1045.5 1360 1068.5 C 1242 1091.5 1113.667 1103 975 1103 C 836.333 1103 708 1091.5 590 1068.5 C 472 1045.833 378.667 1014.833 310 975.5 C 241.333 936.167 207 893.5 207 847.5 L 207 627.5 C 292.531 703.17 394.667 745.833 532 774.5 C 669.333 803.167 817 817.5 975 817.5 L 975 817 Z M 975 1590 C 1133 1590 1280.667 1575.667 1418 1547 C 1555.333 1518.333 1663.667 1476 1743 1420 L 1743 1615 C 1743 1661 1708.667 1703.667 1640 1743 C 1571.333 1782.333 1478 1813.5 1360 1836.5 C 1242 1859.5 1113.667 1871 975 1871 C 836.333 1871 708 1859.5 590 1836.5 C 472 1813.833 378.667 1782.833 310 1743.5 C 241.333 1704.167 207 1661.5 207 1615.5 L 207 1420.5 C 286.333 1476.5 394.667 1518.833 532 1547.5 C 669.333 1576.167 817 1590.5 975 1590.5 L 975 1590 Z M 975 1191 C 1133 1191 1280.667 1176.667 1418 1148 C 1555.333 1119.333 1663.667 1077 1743 1021 L 1743 1231 C 1743 1277 1708.667 1319.667 1640 1359 C 1571.333 1398.333 1478 1429.5 1360 1452.5 C 1242 1475.5 1113.667 1487 975 1487 C 836.333 1487 708 1475.5 590 1452.5 C 472 1429.833 378.667 1398.833 310 1359.5 C 241.333 1320.167 207 1277.5 207 1231.5 L 207 1021.5 C 286.333 1077.5 394.667 1119.833 532 1148.5 C 669.333 1177.167 817 1191.5 975 1191.5 L 975 1191 Z M 975 79 C 1113.667 79 1242 90.5 1360 113.5 C 1478 136.5 1571.333 167.667 1640 207 C 1708.667 246.333 1743 289 1743 335 L 1743 463 C 1743 509 1708.667 561.667 1640 601 C 1571.333 640.333 1478 671.5 1360 694.5 C 1242 717.5 1113.667 729 975 729 C 836.333 729 708 717.5 590 694.5 C 472 671.5 378.667 640.333 310 601 C 241.333 561.667 207 509 207 463 L 207 335 C 207 289 241.333 246.333 310 207 C 378.667 167.667 472 136.5 590 113.5 C 708 90.5 836.333 79 975 79 Z" style=""/>
  </g>
</svg>