<?xml version="1.0" encoding="utf-8"?>
<svg width="800px" height="800px" viewBox="0 0 512 512" version="1.1" xmlns="http://www.w3.org/2000/svg" xmlns:bx="https://boxy-svg.com">
  <title>pan</title>
  <g id="Page-1" stroke="none" stroke-width="1" fill="none" fill-rule="evenodd" style="visibility: hidden;">
    <g id="drop" fill="#000000" transform="translate(42.666667, 42.666667)">
      <path d="M234.666667,256 L234.666667,341.333333 L277.333333,341.333333 L213.333333,426.666667 L149.333333,341.333333 L192,341.333333 L192,256 L234.666667,256 Z M341.333333,149.333333 L426.666667,213.333333 L341.333333,277.333333 L341.333333,234.666667 L256,234.666667 L256,192 L341.333333,192 L341.333333,149.333333 Z M85.3333333,149.333333 L85.3333333,192 L170.666667,192 L170.666667,234.666667 L85.3333333,234.666667 L85.3333333,277.333333 L3.55271368e-14,213.333333 L85.3333333,149.333333 Z M213.333333,3.55271368e-14 L277.333333,85.3333333 L234.666667,85.3333333 L234.666667,170.666667 L192,170.666667 L192,85.3333333 L149.333333,85.3333333 L213.333333,3.55271368e-14 Z" id="Combined-Shape"/>
    </g>
  </g>
  <path d="M 356.872 -415.564 H 444.253 L 444.253 -469.317 L 554.813 -377.168 L 444.253 -285.019 L 444.253 -338.772 H 356.872 V -415.564 Z" bx:shape="arrow 356.872 -469.317 197.941 184.298 76.792 110.56 0 1@863e097f" style="stroke: rgb(0, 0, 0);" transform="matrix(0, -1, 1, 0, 634.126709, 570.29364)"/>
  <path d="M -213.849 -295.725 H -95.479 L -95.479 -349.86 L -23.446 -257.056 L -95.479 -164.252 L -95.479 -218.388 H -213.849 V -295.725 Z" bx:shape="arrow -213.849 -349.86 190.403 185.608 77.337 72.033 0 1@b476227a" style="stroke: rgb(0, 0, 0);" transform="matrix(-1, 0, 0, -1, 0, 0)"/>
  <path d="M 295.911 219.822 H 414.281 L 414.281 166.669 L 486.314 257.79 L 414.281 348.911 L 414.281 295.757 H 295.911 V 219.822 Z" bx:shape="arrow 295.911 166.669 190.403 182.242 75.935 72.033 0 1@3b6120eb" style="stroke: rgb(0, 0, 0); stroke-width: 1; transform-box: fill-box; transform-origin: 50% 50%;"/>
  <path d="M 356.872 -403.546 H 444.253 L 444.253 -455.744 L 554.813 -366.26 L 444.253 -276.776 L 444.253 -328.975 H 356.872 V -403.546 Z" bx:shape="arrow 356.872 -455.744 197.941 178.968 74.571 110.56 0 1@9c2a2c3a" style="stroke: rgb(0, 0, 0); stroke-width: 1; transform-box: fill-box; transform-origin: 50% 50%;" transform="matrix(0, 1, -1, 0, -201.733734, 769.500916)"/>
</svg>