<?xml version="1.0" encoding="utf-8"?>
<svg xmlns="http://www.w3.org/2000/svg" width="606px" height="698px" viewBox="0 0 606.503 695.877">
  <path fill-rule="evenodd" d="M 566.22 190.671 C 612.722 191.714 619.178 251.788 581.03 264.753 C 562.66 270.996 544.229 260.279 537.586 250.925 C 535.639 248.182 534.403 238.731 531.662 237.096 C 506.651 237.096 481.632 237.096 456.622 237.096 C 453.693 250.217 445.84 262.848 440.824 274.631 C 438.349 280.444 439.074 285.331 432.925 287.472 C 427.397 290.939 411.069 288.459 403.303 288.459 C 377.508 288.459 342.851 292.085 319.377 287.472 C 318.428 285.727 318.136 285.812 317.402 283.521 C 310.13 271.482 329.807 272.656 339.124 272.655 C 367.426 272.655 395.736 272.655 424.038 272.655 C 429.474 262.59 440.641 227.252 447.735 222.28 C 452.217 218.885 463.844 220.304 471.432 220.304 C 491.507 220.304 511.587 220.304 531.662 220.304 C 534.537 208.698 543.268 197.913 553.384 193.635 C 557.185 192.027 562.812 192.78 566.22 190.671 Z M 532.649 308.214 C 554.091 307.784 566.272 312.332 574.119 325.006 C 591.504 353.087 568.509 378.714 544.498 383.284 C 530.434 385.961 514.939 373.971 509.94 366.492 C 508.814 364.809 505.838 354.164 505.003 353.651 C 444.45 353.651 383.879 353.651 323.326 353.651 C 322.267 352.909 322.393 353.057 320.364 352.664 C 317.884 348.963 316.44 348.648 316.415 341.798 C 319.467 339.767 319.304 338.381 324.314 337.847 C 330.355 334.105 363.779 336.859 373.682 336.859 C 417.451 336.859 461.234 336.859 505.003 336.859 C 508.975 326.02 513.724 317.714 522.775 312.166 C 525.82 310.299 529.938 310.284 532.649 308.214 Z M 321.352 402.051 C 346.033 402.051 370.723 402.051 395.404 402.051 C 408.207 402.051 423.75 400.898 434.899 403.039 C 441.51 414.512 447.294 429.178 452.672 441.562 C 453.988 445.512 455.305 449.464 456.622 453.415 C 459.912 453.415 463.204 453.415 466.495 453.415 C 488.215 453.415 509.942 453.415 531.662 453.415 C 536.816 439.715 544.695 428.728 559.308 424.77 C 592.222 415.854 616.045 453.486 602.753 479.096 C 593.885 496.181 566.348 506.597 546.472 492.925 C 541.96 489.821 535.983 482.281 533.637 477.121 C 532.732 475.132 533.229 471.324 531.662 470.207 C 504.347 470.207 477.025 470.207 449.71 470.207 C 448.702 469.412 449.439 469.856 447.735 469.219 C 441.435 458.789 435.982 445.337 430.95 433.66 C 429.012 429.162 428.164 419.852 424.038 417.856 C 389.813 417.856 355.577 417.856 321.352 417.856 C 320.343 417.061 321.081 417.505 319.377 416.868 C 318.428 415.123 318.136 415.208 317.402 412.917 C 313.996 407.919 319 404.427 321.352 402.051 Z" style=""/>
  <path style="stroke: rgb(0, 0, 0);" d="M 298.983 3.181 L 401.759 0 L 399.101 176.033 C 320.984 175.932 224.108 255.57 234.777 346.593 C 247.139 452.06 308.137 507.966 401.787 513.377 L 402.932 695.534 L 298.983 695.877 L 298.406 619.386 C 269.618 612.836 218.488 587.977 193.414 572.626 L 140.867 629.006 L 66.697 553.67 L 119.812 495.976 C 104.174 471.362 84.016 423.758 77.344 395.499 L 4.882 394.884 L 0 302.467 L 82.896 291.297 C 92.921 256.645 100.468 216.428 122.635 193.214 L 68.484 134.979 L 142.004 64.344 L 198.85 120.526 C 226.166 99.581 270.54 74.734 299.801 78.721 L 299.467 0.928 L 298.983 3.181 Z"/>
</svg>